<?xml version="1.0" encoding="UTF-8"?>
<!DOCTYPE svg PUBLIC "-//W3C//DTD SVG 1.1//EN" "http://www.w3.org/Graphics/SVG/1.1/DTD/svg11.dtd">
<!-- Creator: CorelDRAW 2021 (64-Bit) -->
<svg xmlns="http://www.w3.org/2000/svg" xml:space="preserve" width="1238px" height="238px" version="1.1" style="shape-rendering:geometricPrecision; text-rendering:geometricPrecision; image-rendering:optimizeQuality; fill-rule:evenodd; clip-rule:evenodd"
viewBox="0 0 1037 200"
 xmlns:xlink="http://www.w3.org/1999/xlink"
 xmlns:xodm="http://www.corel.com/coreldraw/odm/2003">
 <defs>
  <style type="text/css">
   <![CDATA[
    .fil0 {fill:#F97015}
   ]]>
  </style>
 </defs>
 <g id="Layer_x0020_1">
  <metadata id="CorelCorpID_0Corel-Layer"/>
  <g id="_1489071738528">
   <path class="fil0" d="M176 194c4,-12 2,-69 2,-86 0,-27 -2,-62 0,-88 13,-2 42,-1 56,-1 65,1 58,83 12,88 -13,2 -46,-6 -50,8 -2,6 -1,47 -1,57 0,9 -2,20 5,24 9,5 13,-4 13,-12 0,-19 -1,-39 0,-58 35,0 77,1 85,-54 3,-20 -5,-39 -16,-52 -12,-14 -30,-18 -52,-18 -10,0 -62,-2 -67,2 -6,4 -3,122 -3,138 0,12 0,24 0,35 0,14 0,24 16,17z"/>
   <path class="fil0" d="M347 20c23,-1 68,-4 85,7 9,6 18,18 19,34 1,22 -14,41 -31,45 -20,5 -30,2 -7,33l32 46c8,11 10,16 21,7 1,-12 -9,-20 -19,-36 -4,-6 -21,-28 -22,-32 9,-6 22,-7 34,-25 18,-26 13,-65 -14,-85 -22,-16 -52,-12 -84,-12 -38,0 -31,-9 -31,74 0,35 0,71 0,106 0,8 1,16 10,15 9,-1 8,-12 7,-20 0,-17 0,-35 0,-52 0,-31 -3,-75 0,-105z"/>
   <path class="fil0" d="M721 117c0,30 5,45 21,62 29,30 89,28 114,-8 15,-21 13,-40 13,-70l0 -72c0,-9 3,-23 -7,-25 -13,-3 -11,12 -11,22 0,26 3,106 -5,126 -15,36 -66,40 -90,18 -13,-12 -18,-25 -18,-47l0 -99c0,-14 2,-22 -14,-20 -7,11 -4,41 -4,55 0,20 0,39 0,59z"/>
   <path class="fil0" d="M819 3c-6,11 -3,80 -3,97 0,19 4,41 -16,44 -24,5 -25,-17 -25,-36 0,-20 0,-40 0,-60 0,-31 5,-49 -15,-45 -7,14 -3,77 -3,98 0,21 -3,65 43,61 37,-3 33,-38 33,-71l0 -77c0,-11 -3,-13 -15,-11z"/>
   <path class="fil0" d="M10 132c-7,4 -5,12 3,17 18,11 47,20 66,10 11,-6 20,-23 9,-38 -7,-9 -26,-14 -36,-19 -36,-18 -36,-51 -17,-70 35,-35 89,16 79,-21 -20,-12 -62,-14 -83,1 -20,14 -35,43 -22,73 11,27 34,32 58,43 19,9 5,21 -17,17 -15,-3 -29,-18 -39,-12z"/>
   <path class="fil0" d="M2 181c16,23 99,33 121,-19 17,-41 -6,-68 -40,-83 -12,-6 -29,-7 -25,-19 5,-15 32,3 49,2 11,-15 -7,-20 -23,-23 -49,-10 -55,34 -28,48 14,7 25,10 37,18 37,25 16,105 -76,66 -11,-5 -23,1 -16,11z"/>
   <path class="fil0" d="M504 68c35,4 28,-44 89,-41 83,5 84,136 3,143 -21,2 -37,-4 -51,-14 -16,-11 -16,-31 -39,-26 -21,14 29,75 95,68 109,-12 116,-179 4,-197 -25,-4 -51,0 -72,14 -11,7 -15,12 -23,22 -11,14 -14,12 -6,31z"/>
   <path class="fil0" d="M940 56l0 110c0,15 -3,22 5,31 18,1 13,-16 13,-31l0 -111c0,-16 -3,-17 -19,-17 -8,0 -28,-1 -35,0 -12,2 -10,16 0,17 9,1 25,0 35,1z"/>
   <path class="fil0" d="M975 51l0 119c0,14 -4,29 14,26 6,-9 4,-7 4,-21l0 -119c19,-2 52,7 41,-17 -10,-2 -25,-1 -36,-1 -15,0 -23,-2 -23,14z"/>
   <path class="fil0" d="M923 19c22,0 102,3 113,-3 5,-16 -7,-14 -21,-14 -27,0 -98,-2 -115,1 -10,19 4,16 23,16z"/>
   <path class="fil0" d="M365 135c0,13 -2,50 2,60 21,6 15,-15 16,-32 13,5 25,49 38,30 5,-8 -2,-13 -9,-24l-29 -41c-9,-11 -18,-7 -18,8z"/>
   <path class="fil0" d="M212 55c16,0 35,-5 31,14 -11,7 -20,0 -25,8 -14,13 29,23 41,-1 5,-10 3,-21 -3,-29 -9,-12 -24,-10 -41,-10 -9,0 -18,-1 -20,7 -2,10 8,11 16,11z"/>
   <path class="fil0" d="M366 52c15,9 58,-6 46,17 -3,6 -16,2 -25,7l-1 10c46,23 68,-49 12,-49 -26,0 -36,-3 -32,15z"/>
   <path class="fil0" d="M672 79c0,0 0,0 0,0z"/>
  </g>
 </g>
</svg>
